<mxfile host="app.diagrams.net" modified="2024-06-19T22:54:23.605Z" agent="Mozilla/5.0 (Windows NT 10.0; Win64; x64) AppleWebKit/537.36 (KHTML, like Gecko) Chrome/126.0.0.0 Safari/537.36" etag="qRyJ8LW8fHJNi3BHSuQk" version="24.5.5" type="github">
  <diagram name="Page-1" id="2YBvvXClWsGukQMizWep">
    <mxGraphModel dx="777" dy="446" grid="1" gridSize="10" guides="1" tooltips="1" connect="1" arrows="1" fold="1" page="1" pageScale="1" pageWidth="850" pageHeight="1100" math="0" shadow="0">
      <root>
        <mxCell id="0" />
        <mxCell id="1" parent="0" />
        <mxCell id="9LX_Q9qdHX030zGX6Rbw-1" value="Insere Filme" style="text;html=1;align=center;verticalAlign=middle;resizable=0;points=[];autosize=1;strokeColor=none;fillColor=none;" vertex="1" parent="1">
          <mxGeometry x="250" y="20" width="90" height="30" as="geometry" />
        </mxCell>
        <mxCell id="9LX_Q9qdHX030zGX6Rbw-2" value="Ator" style="shape=umlLifeline;perimeter=lifelinePerimeter;whiteSpace=wrap;html=1;container=1;dropTarget=0;collapsible=0;recursiveResize=0;outlineConnect=0;portConstraint=eastwest;newEdgeStyle={&quot;edgeStyle&quot;:&quot;elbowEdgeStyle&quot;,&quot;elbow&quot;:&quot;vertical&quot;,&quot;curved&quot;:0,&quot;rounded&quot;:0};" vertex="1" parent="1">
          <mxGeometry x="670" y="80" width="100" height="560" as="geometry" />
        </mxCell>
        <mxCell id="9LX_Q9qdHX030zGX6Rbw-17" value="" style="html=1;points=[[0,0,0,0,5],[0,1,0,0,-5],[1,0,0,0,5],[1,1,0,0,-5]];perimeter=orthogonalPerimeter;outlineConnect=0;targetShapes=umlLifeline;portConstraint=eastwest;newEdgeStyle={&quot;curved&quot;:0,&quot;rounded&quot;:0};" vertex="1" parent="9LX_Q9qdHX030zGX6Rbw-2">
          <mxGeometry x="45" y="210" width="10" height="80" as="geometry" />
        </mxCell>
        <mxCell id="9LX_Q9qdHX030zGX6Rbw-4" value="Tela" style="shape=umlLifeline;perimeter=lifelinePerimeter;whiteSpace=wrap;html=1;container=1;dropTarget=0;collapsible=0;recursiveResize=0;outlineConnect=0;portConstraint=eastwest;newEdgeStyle={&quot;edgeStyle&quot;:&quot;elbowEdgeStyle&quot;,&quot;elbow&quot;:&quot;vertical&quot;,&quot;curved&quot;:0,&quot;rounded&quot;:0};" vertex="1" parent="1">
          <mxGeometry x="250" y="80" width="100" height="560" as="geometry" />
        </mxCell>
        <mxCell id="9LX_Q9qdHX030zGX6Rbw-5" value="Insere informações do Filme" style="html=1;verticalAlign=bottom;endArrow=block;curved=0;rounded=0;" edge="1" parent="1" source="9LX_Q9qdHX030zGX6Rbw-8">
          <mxGeometry x="-0.1069" width="80" relative="1" as="geometry">
            <mxPoint x="120" y="200" as="sourcePoint" />
            <mxPoint x="300" y="200" as="targetPoint" />
            <mxPoint as="offset" />
          </mxGeometry>
        </mxCell>
        <mxCell id="9LX_Q9qdHX030zGX6Rbw-8" value="" style="shape=umlLifeline;perimeter=lifelinePerimeter;whiteSpace=wrap;html=1;container=1;dropTarget=0;collapsible=0;recursiveResize=0;outlineConnect=0;portConstraint=eastwest;newEdgeStyle={&quot;curved&quot;:0,&quot;rounded&quot;:0};participant=umlActor;" vertex="1" parent="1">
          <mxGeometry x="80" y="80" width="20" height="560" as="geometry" />
        </mxCell>
        <mxCell id="9LX_Q9qdHX030zGX6Rbw-9" value="Operador" style="text;html=1;align=center;verticalAlign=middle;resizable=0;points=[];autosize=1;strokeColor=none;fillColor=none;" vertex="1" parent="1">
          <mxGeometry x="55" y="50" width="70" height="30" as="geometry" />
        </mxCell>
        <mxCell id="9LX_Q9qdHX030zGX6Rbw-12" value="Filme" style="shape=umlLifeline;perimeter=lifelinePerimeter;whiteSpace=wrap;html=1;container=1;dropTarget=0;collapsible=0;recursiveResize=0;outlineConnect=0;portConstraint=eastwest;newEdgeStyle={&quot;edgeStyle&quot;:&quot;elbowEdgeStyle&quot;,&quot;elbow&quot;:&quot;vertical&quot;,&quot;curved&quot;:0,&quot;rounded&quot;:0};" vertex="1" parent="1">
          <mxGeometry x="470" y="80" width="100" height="560" as="geometry" />
        </mxCell>
        <mxCell id="9LX_Q9qdHX030zGX6Rbw-28" value="" style="html=1;points=[[0,0,0,0,5],[0,1,0,0,-5],[1,0,0,0,5],[1,1,0,0,-5]];perimeter=orthogonalPerimeter;outlineConnect=0;targetShapes=umlLifeline;portConstraint=eastwest;newEdgeStyle={&quot;curved&quot;:0,&quot;rounded&quot;:0};" vertex="1" parent="9LX_Q9qdHX030zGX6Rbw-12">
          <mxGeometry x="45" y="350" width="10" height="80" as="geometry" />
        </mxCell>
        <mxCell id="9LX_Q9qdHX030zGX6Rbw-13" value="Insere informações do elenco" style="html=1;verticalAlign=bottom;endArrow=block;curved=0;rounded=0;" edge="1" parent="1">
          <mxGeometry x="-0.1069" width="80" relative="1" as="geometry">
            <mxPoint x="90" y="240" as="sourcePoint" />
            <mxPoint x="300" y="240" as="targetPoint" />
            <mxPoint as="offset" />
          </mxGeometry>
        </mxCell>
        <mxCell id="9LX_Q9qdHX030zGX6Rbw-15" value="Clica no botão de inserir ator no filme" style="html=1;verticalAlign=bottom;endArrow=block;curved=0;rounded=0;" edge="1" parent="1">
          <mxGeometry x="-0.1069" width="80" relative="1" as="geometry">
            <mxPoint x="90" y="280" as="sourcePoint" />
            <mxPoint x="300" y="280" as="targetPoint" />
            <mxPoint as="offset" />
          </mxGeometry>
        </mxCell>
        <mxCell id="9LX_Q9qdHX030zGX6Rbw-16" value="Localiza_Ator(info_ator)" style="html=1;verticalAlign=bottom;endArrow=block;curved=0;rounded=0;" edge="1" parent="1" target="9LX_Q9qdHX030zGX6Rbw-2">
          <mxGeometry x="-0.3325" width="80" relative="1" as="geometry">
            <mxPoint x="300" y="290" as="sourcePoint" />
            <mxPoint x="380" y="290" as="targetPoint" />
            <mxPoint as="offset" />
          </mxGeometry>
        </mxCell>
        <mxCell id="9LX_Q9qdHX030zGX6Rbw-18" value="Obj_Ator" style="html=1;verticalAlign=bottom;endArrow=open;dashed=1;endSize=8;curved=0;rounded=0;" edge="1" parent="1" target="9LX_Q9qdHX030zGX6Rbw-4">
          <mxGeometry x="-0.5244" relative="1" as="geometry">
            <mxPoint x="720" y="370" as="sourcePoint" />
            <mxPoint x="640" y="370" as="targetPoint" />
            <mxPoint as="offset" />
          </mxGeometry>
        </mxCell>
        <mxCell id="9LX_Q9qdHX030zGX6Rbw-21" value="" style="endArrow=none;dashed=1;html=1;rounded=0;" edge="1" parent="1">
          <mxGeometry width="50" height="50" relative="1" as="geometry">
            <mxPoint x="60" y="400" as="sourcePoint" />
            <mxPoint x="60" y="220" as="targetPoint" />
          </mxGeometry>
        </mxCell>
        <mxCell id="9LX_Q9qdHX030zGX6Rbw-22" value="" style="endArrow=none;dashed=1;html=1;rounded=0;" edge="1" parent="1">
          <mxGeometry width="50" height="50" relative="1" as="geometry">
            <mxPoint x="780" y="220" as="sourcePoint" />
            <mxPoint x="60" y="220" as="targetPoint" />
          </mxGeometry>
        </mxCell>
        <mxCell id="9LX_Q9qdHX030zGX6Rbw-23" value="" style="endArrow=none;dashed=1;html=1;rounded=0;" edge="1" parent="1">
          <mxGeometry width="50" height="50" relative="1" as="geometry">
            <mxPoint x="780" y="400" as="sourcePoint" />
            <mxPoint x="780" y="220" as="targetPoint" />
          </mxGeometry>
        </mxCell>
        <mxCell id="9LX_Q9qdHX030zGX6Rbw-24" value="" style="endArrow=none;dashed=1;html=1;rounded=0;" edge="1" parent="1">
          <mxGeometry width="50" height="50" relative="1" as="geometry">
            <mxPoint x="775" y="400" as="sourcePoint" />
            <mxPoint x="55" y="400" as="targetPoint" />
          </mxGeometry>
        </mxCell>
        <mxCell id="9LX_Q9qdHX030zGX6Rbw-25" value="Loop até inserção&amp;nbsp;&lt;div&gt;de todo o elenco&lt;/div&gt;" style="text;html=1;align=center;verticalAlign=middle;resizable=0;points=[];autosize=1;strokeColor=none;fillColor=none;" vertex="1" parent="1">
          <mxGeometry x="780" y="290" width="120" height="40" as="geometry" />
        </mxCell>
        <mxCell id="9LX_Q9qdHX030zGX6Rbw-26" value="Clica no botão de inserir filme" style="html=1;verticalAlign=bottom;endArrow=block;curved=0;rounded=0;" edge="1" parent="1" source="9LX_Q9qdHX030zGX6Rbw-8">
          <mxGeometry width="80" relative="1" as="geometry">
            <mxPoint x="220" y="420" as="sourcePoint" />
            <mxPoint x="300" y="420" as="targetPoint" />
          </mxGeometry>
        </mxCell>
        <mxCell id="9LX_Q9qdHX030zGX6Rbw-27" value="Insere_Filme(info_filme)" style="html=1;verticalAlign=bottom;endArrow=block;curved=0;rounded=0;" edge="1" parent="1" target="9LX_Q9qdHX030zGX6Rbw-12">
          <mxGeometry width="80" relative="1" as="geometry">
            <mxPoint x="300" y="430" as="sourcePoint" />
            <mxPoint x="380" y="430" as="targetPoint" />
          </mxGeometry>
        </mxCell>
        <mxCell id="9LX_Q9qdHX030zGX6Rbw-29" value="Cod_Erro" style="html=1;verticalAlign=bottom;endArrow=open;dashed=1;endSize=8;curved=0;rounded=0;" edge="1" parent="1" target="9LX_Q9qdHX030zGX6Rbw-4">
          <mxGeometry relative="1" as="geometry">
            <mxPoint x="520" y="510" as="sourcePoint" />
            <mxPoint x="440" y="510" as="targetPoint" />
          </mxGeometry>
        </mxCell>
        <mxCell id="9LX_Q9qdHX030zGX6Rbw-30" value="Se Cod_Erro = 0, Filme incluido com sucesso, se não, tratar erro" style="html=1;whiteSpace=wrap;" vertex="1" parent="1">
          <mxGeometry x="125" y="470" width="160" height="80" as="geometry" />
        </mxCell>
        <mxCell id="9LX_Q9qdHX030zGX6Rbw-31" value="Excluir Filme" style="text;html=1;align=center;verticalAlign=middle;resizable=0;points=[];autosize=1;strokeColor=none;fillColor=none;" vertex="1" parent="1">
          <mxGeometry x="1125" y="20" width="90" height="30" as="geometry" />
        </mxCell>
        <mxCell id="9LX_Q9qdHX030zGX6Rbw-32" value="Filme" style="shape=umlLifeline;perimeter=lifelinePerimeter;whiteSpace=wrap;html=1;container=1;dropTarget=0;collapsible=0;recursiveResize=0;outlineConnect=0;portConstraint=eastwest;newEdgeStyle={&quot;edgeStyle&quot;:&quot;elbowEdgeStyle&quot;,&quot;elbow&quot;:&quot;vertical&quot;,&quot;curved&quot;:0,&quot;rounded&quot;:0};" vertex="1" parent="1">
          <mxGeometry x="1305" y="80" width="100" height="560" as="geometry" />
        </mxCell>
        <mxCell id="9LX_Q9qdHX030zGX6Rbw-33" value="" style="html=1;points=[[0,0,0,0,5],[0,1,0,0,-5],[1,0,0,0,5],[1,1,0,0,-5]];perimeter=orthogonalPerimeter;outlineConnect=0;targetShapes=umlLifeline;portConstraint=eastwest;newEdgeStyle={&quot;curved&quot;:0,&quot;rounded&quot;:0};" vertex="1" parent="9LX_Q9qdHX030zGX6Rbw-32">
          <mxGeometry x="45" y="160" width="10" height="200" as="geometry" />
        </mxCell>
        <mxCell id="9LX_Q9qdHX030zGX6Rbw-34" value="Tela" style="shape=umlLifeline;perimeter=lifelinePerimeter;whiteSpace=wrap;html=1;container=1;dropTarget=0;collapsible=0;recursiveResize=0;outlineConnect=0;portConstraint=eastwest;newEdgeStyle={&quot;edgeStyle&quot;:&quot;elbowEdgeStyle&quot;,&quot;elbow&quot;:&quot;vertical&quot;,&quot;curved&quot;:0,&quot;rounded&quot;:0};" vertex="1" parent="1">
          <mxGeometry x="1125" y="80" width="100" height="560" as="geometry" />
        </mxCell>
        <mxCell id="9LX_Q9qdHX030zGX6Rbw-35" value="Localiza filme para exclusão" style="html=1;verticalAlign=bottom;endArrow=block;curved=0;rounded=0;" edge="1" parent="1" source="9LX_Q9qdHX030zGX6Rbw-38">
          <mxGeometry x="-0.1069" width="80" relative="1" as="geometry">
            <mxPoint x="995" y="200" as="sourcePoint" />
            <mxPoint x="1175" y="200" as="targetPoint" />
            <mxPoint as="offset" />
          </mxGeometry>
        </mxCell>
        <mxCell id="9LX_Q9qdHX030zGX6Rbw-36" value="Localizar_Filme(filme)" style="html=1;verticalAlign=bottom;endArrow=block;curved=0;rounded=0;" edge="1" parent="1" target="9LX_Q9qdHX030zGX6Rbw-32">
          <mxGeometry x="0.0036" width="80" relative="1" as="geometry">
            <mxPoint x="1175" y="240" as="sourcePoint" />
            <mxPoint x="1314.5" y="240" as="targetPoint" />
            <mxPoint as="offset" />
          </mxGeometry>
        </mxCell>
        <mxCell id="9LX_Q9qdHX030zGX6Rbw-37" value="Clica no botão para Localizar" style="html=1;verticalAlign=bottom;endArrow=block;curved=0;rounded=0;" edge="1" parent="1" source="9LX_Q9qdHX030zGX6Rbw-38">
          <mxGeometry width="80" relative="1" as="geometry">
            <mxPoint x="995" y="230" as="sourcePoint" />
            <mxPoint x="1175" y="230" as="targetPoint" />
          </mxGeometry>
        </mxCell>
        <mxCell id="9LX_Q9qdHX030zGX6Rbw-38" value="" style="shape=umlLifeline;perimeter=lifelinePerimeter;whiteSpace=wrap;html=1;container=1;dropTarget=0;collapsible=0;recursiveResize=0;outlineConnect=0;portConstraint=eastwest;newEdgeStyle={&quot;curved&quot;:0,&quot;rounded&quot;:0};participant=umlActor;" vertex="1" parent="1">
          <mxGeometry x="955" y="80" width="20" height="560" as="geometry" />
        </mxCell>
        <mxCell id="9LX_Q9qdHX030zGX6Rbw-39" value="Operador" style="text;html=1;align=center;verticalAlign=middle;resizable=0;points=[];autosize=1;strokeColor=none;fillColor=none;" vertex="1" parent="1">
          <mxGeometry x="930" y="50" width="70" height="30" as="geometry" />
        </mxCell>
        <mxCell id="9LX_Q9qdHX030zGX6Rbw-40" value="Obj_Filme" style="html=1;verticalAlign=bottom;endArrow=open;dashed=1;endSize=8;curved=0;rounded=0;" edge="1" parent="1">
          <mxGeometry relative="1" as="geometry">
            <mxPoint x="1350" y="320" as="sourcePoint" />
            <mxPoint x="1175" y="320" as="targetPoint" />
          </mxGeometry>
        </mxCell>
        <mxCell id="9LX_Q9qdHX030zGX6Rbw-41" value="Se Cod_Erro = 0, filme excluido com sucesso, se não, tratar erro" style="html=1;whiteSpace=wrap;" vertex="1" parent="1">
          <mxGeometry x="1000" y="400" width="160" height="80" as="geometry" />
        </mxCell>
        <mxCell id="9LX_Q9qdHX030zGX6Rbw-42" value="Clica no botão de excluir" style="html=1;verticalAlign=bottom;endArrow=block;curved=0;rounded=0;" edge="1" parent="1" source="9LX_Q9qdHX030zGX6Rbw-38" target="9LX_Q9qdHX030zGX6Rbw-34">
          <mxGeometry width="80" relative="1" as="geometry">
            <mxPoint x="1100" y="340" as="sourcePoint" />
            <mxPoint x="1170" y="340" as="targetPoint" />
            <Array as="points">
              <mxPoint x="1150" y="340" />
            </Array>
          </mxGeometry>
        </mxCell>
        <mxCell id="9LX_Q9qdHX030zGX6Rbw-43" value="Confirma mensagem de exclusão" style="html=1;verticalAlign=bottom;endArrow=block;curved=0;rounded=0;" edge="1" parent="1" source="9LX_Q9qdHX030zGX6Rbw-38" target="9LX_Q9qdHX030zGX6Rbw-34">
          <mxGeometry width="80" relative="1" as="geometry">
            <mxPoint x="970" y="370" as="sourcePoint" />
            <mxPoint x="1180" y="370" as="targetPoint" />
            <Array as="points">
              <mxPoint x="1155" y="370" />
            </Array>
          </mxGeometry>
        </mxCell>
        <mxCell id="9LX_Q9qdHX030zGX6Rbw-44" value="Exclui_Filme(info_filme)" style="html=1;verticalAlign=bottom;endArrow=block;curved=0;rounded=0;" edge="1" parent="1">
          <mxGeometry width="80" relative="1" as="geometry">
            <mxPoint x="1174.5" y="380" as="sourcePoint" />
            <mxPoint x="1350" y="380" as="targetPoint" />
          </mxGeometry>
        </mxCell>
        <mxCell id="9LX_Q9qdHX030zGX6Rbw-45" value="Cod_Erro" style="html=1;verticalAlign=bottom;endArrow=open;dashed=1;endSize=8;curved=0;rounded=0;" edge="1" parent="1" target="9LX_Q9qdHX030zGX6Rbw-34">
          <mxGeometry relative="1" as="geometry">
            <mxPoint x="1350" y="440" as="sourcePoint" />
            <mxPoint x="1270" y="440" as="targetPoint" />
          </mxGeometry>
        </mxCell>
      </root>
    </mxGraphModel>
  </diagram>
</mxfile>
